<?xml version="1.0" standalone="no"?>
<!DOCTYPE svg PUBLIC "-//W3C//DTD SVG 20010904//EN"
 "http://www.w3.org/TR/2001/REC-SVG-20010904/DTD/svg10.dtd">
<svg version="1.0" xmlns="http://www.w3.org/2000/svg"
 width="233.306551pt" height="305.596597pt" viewBox="0 0 233.306551 305.596597"
 preserveAspectRatio="xMidYMid meet">
<metadata>
Created by potrace 1.12, written by Peter Selinger 2001-2015
</metadata>
<g transform="translate(-130.558847,410.592463) scale(0.100000,-0.100000)"
fill="#000000" stroke="none">
<path d="M2305 4104 c-189 -25 -282 -51 -410 -116 -454 -230 -682 -739 -554
-1243 29 -115 124 -303 204 -402 224 -279 586 -430 941 -394 451 46 814 345
938 775 96 329 28 686 -181 961 -153 200 -384 346 -623 395 -87 18 -261 31
-315 24z m296 -214 c411 -105 697 -487 676 -900 -18 -335 -204 -619 -500 -765
-322 -158 -689 -112 -972 122 -71 60 -171 186 -214 272 -198 394 -85 865 272
1128 209 154 486 207 738 143z"/>
<path d="M2650 3020 l0 -460 110 0 110 0 0 460 0 460 -110 0 -110 0 0 -460z"/>
<path d="M2280 2940 l0 -380 110 0 110 0 0 380 0 380 -110 0 -110 0 0 -380z"/>
<path d="M1910 2865 l0 -305 110 0 110 0 0 305 0 305 -110 0 -110 0 0 -305z"/>
<path d="M2958 2027 c-126 -72 -228 -135 -228 -139 0 -12 350 -613 359 -616 6
-2 446 245 469 263 5 5 -353 618 -363 621 -5 2 -112 -56 -237 -129z"/>
<path d="M3371 1330 c-123 -71 -229 -134 -234 -139 -6 -6 9 -27 41 -59 107
-108 276 -109 382 -3 60 60 85 128 77 215 -4 57 -23 116 -36 116 -3 0 -107
-59 -230 -130z"/>
</g>
</svg>
